<svg width="2100" height="663" viewBox="0 0 2100 663" fill="none" xmlns="http://www.w3.org/2000/svg">
<rect width="2100" height="663" fill="#FF188C"/>
<path d="M1401.26 173.764L1444.69 137.146L1487.16 198.977L1439.01 250.846L1458.81 198.882L1427.92 214.667L1401.26 173.764Z" fill="#FFF0D7"/>
<path d="M1567.53 337.56C1539.45 363.654 1501.49 398.05 1501.49 398.05L1487.26 297.829C1487.26 297.829 1625.82 224.407 1646.05 287.641C1657.24 322.62 1658.77 330.76 1631.91 381.552C1605.04 432.344 1557.83 491.153 1557.83 491.153L1691.26 441.34L1667.54 531.624L1487.26 531.624L1501.49 470.397C1501.49 470.397 1570.28 402.793 1588.65 381.552C1607.02 360.311 1595.62 311.466 1567.53 337.56Z" fill="#FFF0D7"/>
<path fill-rule="evenodd" clip-rule="evenodd" d="M1718.28 326.826C1721.47 294.742 1766.28 243.997 1819.68 251.602C1873.01 259.2 1898.6 262.305 1898.65 262.311L1878.46 326.717C1878.35 326.668 1853.24 315.506 1813 298.112C1772.68 280.679 1749.81 318.223 1760.52 350.864C1771.19 383.387 1773.91 392.799 1773.93 392.867L1850.57 377.662L1913.48 432.244L1881.43 531.812H1844.64V531.923H1759.12L1710.67 489.017C1710.67 488.809 1715.1 358.885 1718.28 326.826ZM1785.89 445.44L1787.67 485.027H1844.64L1838.73 422.89L1785.89 445.44Z" fill="#FFF0D7"/>
<path fill-rule="evenodd" clip-rule="evenodd" d="M1137.94 211C1165.17 211 1170.04 246.633 1170.04 280.2V369.538L1223.05 358.694L1230.83 272.453H1191.92V211H1326.15V272.453H1276.54L1304.75 536.338H1204.08L1215.75 416.015L1170.04 422.728L1162.74 514.649C1162.74 514.649 1111.68 497.152 1064.02 483.148C1016.36 469.143 1022.24 406.188 1054.29 396.391C1086.31 386.605 1106.77 382.458 1106.81 382.449C1106.81 382.449 1116.05 290.011 1116.54 278.133C1117.03 266.256 1089.31 248.699 1087.85 256.961C1086.39 265.22 1081.53 342.057 1081.53 342.168L1021.22 278.134C1020.78 238.388 1028.15 210.885 1053.32 211C1081.8 211 1121.38 211.001 1137.94 211ZM833.676 211.096L1006.31 211.456L995.28 272.917H969.253V366.795L1053.54 344.965L1025.54 406.585L964.938 405.118L948.464 514.243C917.432 507.313 853.2 488.754 844.522 469.954C836.314 454.007 829.124 418.713 866.026 405.118L938.521 376.287V272.917L833.676 272.609H772.99L804.834 360.673C807.755 385.601 798.779 430.575 739.509 411.053L823.953 532.281H716.405L668.606 351.227H713.219C716.833 368.194 720.692 370.024 727.559 373.268C739.508 376.417 761.018 376.417 751.458 351.227L721.981 274.081H636.115V274.067L599.062 274.413L633.111 532.407H526.597L554.972 274.413H491.674L521.357 532.407L418.335 529.787L429.705 414.726L411.21 407.437C424.561 500.858 372 532.478 334.093 532.542C256.233 535.591 185.101 493.477 168 446.182L228.686 388.678C246.326 448.366 287.416 457.915 287.504 457.935C301.975 461.203 330.451 464.47 353.325 444.397C376.199 424.324 375.76 389.081 337.453 386.045C322.398 384.852 283.351 400.415 283.303 400.434L268.832 363.556C268.916 363.515 283.784 356.224 296.841 346.285C329.984 321.056 320.648 286.065 296.841 281.397C273.034 276.729 239.91 301.432 217.016 320.143L192.274 245.919C238.151 208.137 313.813 211.724 334.093 215.675C417.619 236.249 370.919 356.045 370.919 356.045L436.901 342.308L444.964 274.413H400.939V211.116H638.335V211.114H833.676V211.096Z" fill="#FFF0D7"/>
</svg>
