<svg width="1746" height="400" viewBox="0 0 1746 400" fill="none" xmlns="http://www.w3.org/2000/svg">
<path d="M1233.26 36.7635L1276.69 0.145813L1319.16 61.9775L1271.01 113.846L1290.81 61.882L1259.92 77.6675L1233.26 36.7635Z" fill="#FF188C"/>
<path d="M1399.53 200.56C1371.45 226.654 1333.49 261.05 1333.49 261.05L1319.26 160.829C1319.26 160.829 1457.82 87.4065 1478.05 150.641C1489.24 185.62 1490.77 193.76 1463.91 244.552C1437.04 295.344 1389.83 354.153 1389.83 354.153L1523.26 304.34L1499.54 394.624L1319.26 394.624L1333.49 333.397C1333.49 333.397 1402.28 265.793 1420.65 244.552C1439.02 223.311 1427.62 174.466 1399.53 200.56Z" fill="#FF188C"/>
<path fill-rule="evenodd" clip-rule="evenodd" d="M1550.28 189.826C1553.47 157.742 1598.28 106.997 1651.68 114.602C1705.01 122.2 1730.6 125.305 1730.65 125.311L1710.46 189.717C1710.35 189.668 1685.24 178.506 1645 161.112C1604.68 143.679 1581.81 181.223 1592.52 213.864C1603.19 246.387 1605.91 255.799 1605.93 255.867L1682.57 240.662L1745.48 295.244L1713.43 394.812H1676.64V394.923H1591.12L1542.67 352.017C1542.67 351.809 1547.1 221.885 1550.28 189.826ZM1617.89 308.44L1619.67 348.027H1676.64L1670.73 285.89L1617.89 308.44Z" fill="#FF188C"/>
<path fill-rule="evenodd" clip-rule="evenodd" d="M969.939 74.0004C997.173 74.0003 1002.04 109.632 1002.04 143.199V232.537L1055.05 221.693L1062.83 135.453H1023.92V74.0004H1158.15V135.453H1108.54L1136.75 399.337H1036.08L1047.75 279.014L1002.04 285.728L994.742 377.649C994.742 377.649 943.677 360.152 896.018 346.148C848.358 332.143 854.241 269.188 886.291 259.391C918.331 249.598 938.801 245.45 938.814 245.448C938.826 245.329 948.055 153.004 948.541 141.133C949.027 129.256 921.307 111.698 919.848 119.96C918.389 128.223 913.525 205.168 913.525 205.168L853.222 141.133C852.784 101.387 860.146 73.8848 885.318 74.0004C913.798 74.0004 953.378 74.0005 969.939 74.0004ZM665.676 74.0951L838.31 74.4554L827.28 135.916H801.253V229.794L885.545 207.965L857.536 269.584L796.938 268.117L780.464 377.242C749.432 370.312 685.2 351.753 676.522 332.953C668.315 317.006 661.125 281.712 698.026 268.117L770.521 239.287V135.916L665.676 135.608H604.99L636.834 223.672C639.755 248.6 630.779 293.574 571.509 274.052L655.953 395.281H548.405L500.606 214.226H545.219C548.833 231.193 552.692 233.023 559.559 236.267C571.508 239.416 593.018 239.416 583.458 214.226L553.981 137.081H468.115V137.066L431.062 137.412L465.111 395.406H358.597L386.972 137.412H323.674L353.357 395.406L250.335 392.786L261.705 277.725L243.21 270.436C256.561 363.857 204 395.478 166.093 395.542C88.2327 398.591 17.1012 356.476 0 309.181L60.6855 251.677C78.3212 311.349 119.394 320.908 119.504 320.934C133.975 324.202 162.451 327.469 185.325 307.396C208.199 287.323 207.76 252.08 169.453 249.044C154.389 247.85 115.303 263.434 115.303 263.434L100.832 226.555C100.931 226.506 115.79 219.217 128.841 209.284C161.984 184.055 152.648 149.065 128.841 144.397C105.034 139.729 71.9096 164.431 49.0156 183.142L24.2744 108.918C70.1508 71.1363 145.813 74.7229 166.093 78.6742C249.619 99.2483 202.919 219.044 202.919 219.044L268.901 205.308L276.964 137.412H232.939V74.1146H470.335V74.1127H665.676V74.0951Z" fill="#FF188C"/>
</svg>
