<svg width="1746" height="400" viewBox="0 0 1746 400" fill="none" xmlns="http://www.w3.org/2000/svg">
<path d="M1233.26 36.7635L1276.69 0.145813L1319.16 61.9775L1271.01 113.846L1290.81 61.882L1259.92 77.6675L1233.26 36.7635Z" fill="#FFF0D7"/>
<path d="M1399.53 200.56C1371.45 226.654 1333.49 261.05 1333.49 261.05L1319.26 160.829C1319.26 160.829 1457.82 87.4065 1478.05 150.641C1489.24 185.62 1490.77 193.76 1463.91 244.552C1437.04 295.344 1389.83 354.153 1389.83 354.153L1523.26 304.34L1499.54 394.624L1319.26 394.624L1333.49 333.397C1333.49 333.397 1402.28 265.793 1420.65 244.552C1439.02 223.311 1427.62 174.466 1399.53 200.56Z" fill="#FFF0D7"/>
<path fill-rule="evenodd" clip-rule="evenodd" d="M1550.28 189.826C1553.47 157.742 1598.28 106.997 1651.68 114.602C1705.01 122.2 1730.6 125.305 1730.65 125.311L1710.46 189.717C1710.35 189.668 1685.24 178.506 1645 161.112C1604.68 143.679 1581.81 181.223 1592.52 213.864C1603.19 246.387 1605.91 255.799 1605.93 255.867L1682.57 240.662L1745.48 295.244L1713.43 394.812H1676.64V394.923H1591.12L1542.67 352.017C1542.67 351.809 1547.1 221.885 1550.28 189.826ZM1617.89 308.44L1619.67 348.027H1676.64L1670.73 285.89L1617.89 308.44Z" fill="#FFF0D7"/>
<path d="M969.939 74.001C997.173 74.0009 1002.04 109.633 1002.04 143.199V232.538L1055.05 221.693L1062.83 135.453H1023.92V74.001H1158.15V135.453H1108.54L1136.75 399.338H1036.08L1047.75 279.016L1002.04 285.729L994.742 377.649C994.742 377.649 943.677 360.153 896.018 346.148C848.358 332.144 854.241 269.189 886.291 259.392C918.341 249.595 938.814 245.448 938.814 245.448C938.836 245.237 948.055 152.998 948.541 141.134C949.027 129.256 921.307 111.699 919.848 119.961C918.389 128.223 913.525 205.169 913.525 205.169L853.222 141.135C852.784 101.388 860.145 73.8854 885.318 74.001C913.798 74.001 953.378 74.0011 969.939 74.001ZM665.676 74.0957L838.31 74.4561L827.28 135.917H801.253V229.796L885.545 207.966L857.536 269.585L796.938 268.118L780.464 377.243C749.432 370.314 685.2 351.754 676.522 332.954C668.315 317.006 661.125 281.714 698.026 268.118L770.521 239.288V135.917L666.008 135.609H604.99L636.834 223.673C639.755 248.601 630.779 293.576 571.509 274.054L655.953 395.281H548.405L500.606 214.227H545.219C548.833 231.194 552.692 233.025 559.559 236.269C571.508 239.417 593.018 239.417 583.458 214.227L553.981 137.082H468.115V137.066L431.062 137.413L465.111 395.407H358.597L386.972 137.413H323.674L353.357 395.407L250.335 392.788L261.705 277.726L243.21 270.437C256.561 363.857 204 395.479 166.093 395.543C88.2329 398.592 17.1013 356.478 0 309.183L60.6855 251.678C78.3184 311.34 119.381 320.906 119.504 320.935C133.975 324.202 162.451 327.47 185.325 307.397C208.199 287.324 207.76 252.082 169.453 249.046C154.389 247.852 115.303 263.435 115.303 263.435L100.832 226.557C100.897 226.525 115.775 219.23 128.841 209.284C161.984 184.056 152.648 149.066 128.841 144.397C105.034 139.729 71.9096 164.432 49.0156 183.143L24.2744 108.92C70.1508 71.1377 145.813 74.7244 166.093 78.6758C249.591 99.243 202.951 218.964 202.919 219.045L268.901 205.309L276.964 137.413H232.939V74.1152H470.335V74.1133H665.676V74.0957Z" fill="#FFF0D7"/>
</svg>
