<svg width="1746" height="400" viewBox="0 0 1746 400" fill="none" xmlns="http://www.w3.org/2000/svg">
<path d="M1233.26 36.7635L1276.69 0.145813L1319.16 61.9775L1271.01 113.846L1290.81 61.882L1259.92 77.6675L1233.26 36.7635Z" fill="#FF9A00"/>
<path d="M1399.53 200.56C1371.45 226.654 1333.49 261.05 1333.49 261.05L1319.26 160.829C1319.26 160.829 1457.82 87.4065 1478.05 150.641C1489.24 185.62 1490.77 193.76 1463.91 244.552C1437.04 295.344 1389.83 354.153 1389.83 354.153L1523.26 304.34L1499.54 394.624L1319.26 394.624L1333.49 333.397C1333.49 333.397 1402.28 265.793 1420.65 244.552C1439.02 223.311 1427.62 174.466 1399.53 200.56Z" fill="#FF9A00"/>
<path fill-rule="evenodd" clip-rule="evenodd" d="M1550.28 189.826C1553.47 157.742 1598.28 106.997 1651.68 114.602C1705.01 122.2 1730.6 125.305 1730.65 125.311L1710.46 189.717C1710.35 189.668 1685.24 178.506 1645 161.112C1604.68 143.679 1581.81 181.223 1592.52 213.864C1603.19 246.387 1605.91 255.799 1605.93 255.867L1682.57 240.662L1745.48 295.244L1713.43 394.812H1676.64V394.923H1591.12L1542.67 352.017C1542.67 351.809 1547.1 221.885 1550.28 189.826ZM1617.89 308.44L1619.67 348.027H1676.64L1670.73 285.89L1617.89 308.44Z" fill="#FF9A00"/>
<path fill-rule="evenodd" clip-rule="evenodd" d="M969.939 74.0004C997.173 74.0003 1002.04 109.632 1002.04 143.199V232.537L1055.05 221.694L1062.83 135.453H1023.92V74.0004H1158.15V135.453H1108.54L1136.75 399.338H1036.08L1047.75 279.015L1002.04 285.728L994.742 377.649C994.742 377.649 943.677 360.152 896.018 346.148C848.358 332.143 854.241 269.188 886.291 259.391C918.341 249.594 938.814 245.448 938.814 245.448C938.839 245.206 948.055 152.995 948.541 141.133C949.027 129.256 921.307 111.699 919.848 119.96C918.389 128.223 913.525 205.168 913.525 205.168L853.222 141.134C852.784 101.388 860.145 73.8848 885.318 74.0004C913.798 74.0004 953.378 74.0005 969.939 74.0004ZM665.676 74.0961L838.31 74.4554L827.28 135.917H801.253V229.795L885.545 207.965L857.536 269.584L796.938 268.118L780.464 377.243C749.432 370.313 685.2 351.754 676.522 332.954C668.314 317.007 661.124 281.713 698.026 268.118L770.521 239.287V135.917L665.676 135.609H604.99L636.834 223.672C639.755 248.6 630.779 293.575 571.509 274.053L655.953 395.281H548.405L500.606 214.226H545.219C548.833 231.193 552.692 233.024 559.559 236.268C571.508 239.417 593.018 239.416 583.458 214.226L553.981 137.081H468.115V137.067L431.062 137.413L465.111 395.407H358.597L386.972 137.413H323.674L353.357 395.407L250.335 392.787L261.705 277.725L243.21 270.436C256.561 363.857 204 395.478 166.093 395.542C88.2328 398.591 17.1012 356.477 0 309.182L60.6855 251.677C78.3173 311.336 119.376 320.904 119.504 320.934C133.975 324.202 162.451 327.47 185.325 307.397C208.199 287.324 207.76 252.081 169.453 249.045C154.389 247.851 115.303 263.434 115.303 263.434L100.832 226.556C100.903 226.521 115.778 219.227 128.841 209.284C161.983 184.055 152.648 149.065 128.841 144.397C105.034 139.729 71.9096 164.432 49.0156 183.143L24.2744 108.919C70.1508 71.1371 145.813 74.7238 166.093 78.6752C249.567 99.2366 202.977 218.895 202.919 219.044L268.901 205.308L276.964 137.413H232.939V74.1156H470.335V74.1136H665.676V74.0961Z" fill="#FF9A00"/>
</svg>
