<svg width="2100" height="663" viewBox="0 0 2100 663" fill="none" xmlns="http://www.w3.org/2000/svg">
<rect width="2100" height="663" fill="#FF9A00"/>
<path d="M1401.26 173.764L1444.69 137.146L1487.16 198.977L1439.01 250.846L1458.81 198.882L1427.92 214.667L1401.26 173.764Z" fill="#FFF0D7"/>
<path d="M1567.53 337.56C1539.45 363.654 1501.49 398.05 1501.49 398.05L1487.26 297.829C1487.26 297.829 1625.82 224.407 1646.05 287.641C1657.24 322.62 1658.77 330.76 1631.91 381.552C1605.04 432.344 1557.83 491.153 1557.83 491.153L1691.26 441.34L1667.54 531.624L1487.26 531.624L1501.49 470.397C1501.49 470.397 1570.28 402.793 1588.65 381.552C1607.02 360.311 1595.62 311.466 1567.53 337.56Z" fill="#FFF0D7"/>
<path fill-rule="evenodd" clip-rule="evenodd" d="M1718.28 326.826C1721.47 294.742 1766.28 243.997 1819.68 251.602C1873.01 259.2 1898.6 262.305 1898.65 262.311L1878.46 326.717C1878.35 326.668 1853.24 315.506 1813 298.112C1772.68 280.679 1749.81 318.223 1760.52 350.864C1771.19 383.387 1773.91 392.799 1773.93 392.867L1850.57 377.662L1913.48 432.244L1881.43 531.812H1844.64V531.923H1759.12L1710.67 489.017C1710.67 488.809 1715.1 358.885 1718.28 326.826ZM1785.89 445.44L1787.67 485.027H1844.64L1838.73 422.89L1785.89 445.44Z" fill="#FFF0D7"/>
<path fill-rule="evenodd" clip-rule="evenodd" d="M1137.94 211C1165.17 211 1170.04 246.632 1170.04 280.199V369.537L1223.05 358.693L1230.83 272.453H1191.92V211H1326.15V272.453H1276.54L1304.75 536.337H1204.08L1215.75 416.014L1170.04 422.728L1162.74 514.649C1162.74 514.649 1111.68 497.152 1064.02 483.148C1016.36 469.143 1022.24 406.188 1054.29 396.391C1086.33 386.598 1106.8 382.45 1106.81 382.448C1106.83 382.329 1116.05 290.004 1116.54 278.133C1117.03 266.256 1089.31 248.698 1087.85 256.96C1086.39 265.223 1081.53 342.168 1081.53 342.168L1021.22 278.133C1020.78 238.387 1028.15 210.885 1053.32 211C1081.8 211 1121.38 211.001 1137.94 211ZM833.676 211.095L1006.31 211.455L995.28 272.916H969.253V366.794L1053.54 344.965L1025.54 406.584L964.938 405.117L948.464 514.242C917.432 507.312 853.2 488.753 844.522 469.953C836.315 454.006 829.125 418.712 866.026 405.117L938.521 376.287V272.916L833.676 272.608H772.99L804.834 360.672C807.755 385.6 798.779 430.574 739.509 411.052L823.953 532.281H716.405L668.606 351.226H713.219C716.833 368.193 720.692 370.023 727.559 373.267C739.508 376.416 761.018 376.416 751.458 351.226L721.981 274.081H636.115V274.066L599.062 274.412L633.111 532.406H526.597L554.972 274.412H491.674L521.357 532.406L418.335 529.786L429.705 414.725L411.21 407.436C424.561 500.857 372 532.478 334.093 532.542C256.233 535.591 185.101 493.476 168 446.181L228.686 388.677C246.321 448.349 287.394 457.908 287.504 457.934C301.975 461.202 330.451 464.469 353.325 444.396C376.199 424.323 375.76 389.08 337.453 386.044C322.389 384.85 283.303 400.434 283.303 400.434L268.832 363.555C268.931 363.506 283.79 356.217 296.841 346.284C329.984 321.055 320.648 286.065 296.841 281.397C273.034 276.729 239.91 301.431 217.016 320.142L192.274 245.918C238.151 208.136 313.813 211.723 334.093 215.674C417.619 236.248 370.919 356.044 370.919 356.044L436.901 342.308L444.964 274.412H400.939V211.115H638.335V211.113H833.676V211.095Z" fill="#FFF0D7"/>
</svg>
